# xmcd
#
# Track frame offsets: 
#        150
#        15143
#        30023
#        44999
#        60740
#        76860
#        93060
#        108387
#        123343
#        140522
#        151979
#        166496
#
# Disc length: 2409 seconds
#
# Revision: 0
# Processed by: cddbd v1.5.1PL0 Copyright (c) Steve Scherf et al.
# Submitted via: ExactAudioCopy v0.95a5
#
DISCID=8709670c
DTITLE=Frans Bauer and Marianne Weber - Hollandse Hits
DYEAR=2004
DGENRE=Pop
TTITLE0=De Regenboog
TTITLE1=Ik Leef Alleen VoorJou
TTITLE2=Wat Er Overblijft Zijn 1000 Tranen
TTITLE3=Ik Ben Door Jou Weer Gaan Leven
TTITLE4=Op De Weg Naar Het Geluk
TTITLE5=Kleine Dingen In Het Leven
TTITLE6=Manuel Vaarwel
TTITLE7=Alleen In Een Droom
TTITLE8=Zeven Brieven
TTITLE9=Kijk In Mijn Ogen
TTITLE10=Elke Keer
TTITLE11=Elke Roos
EXTD=
EXTT0=
EXTT1=
EXTT2=
EXTT3=
EXTT4=
EXTT5=
EXTT6=
EXTT7=
EXTT8=
EXTT9=
EXTT10=
EXTT11=
PLAYORDER=
